<?xml version="1.0" standalone="no"?> <!DOCTYPE svg PUBLIC "-//W3C//DTD SVG 1.0//EN" "http://www.w3.org/TR/2001/REC-SVG-20010904/DTD/svg10.dtd" > <svg xmlns="http://www.w3.org/2000/svg" width="100%" height="100%">
<defs >
<font id="font2" horiz-adv-x="1009" ><font-face
    font-family="BentonSans Bold"
    units-per-em="2048"
    panose-1="2 0 5 3 4 0 0 2 0 4"
    ascent="1515"
    descent="-410"
    alphabetic="0" />
<missing-glyph horiz-adv-x="1556" d="M520 1225L657 1212L606 1516H950L899 1212L1034 1225L1030 1278H1270L1268 1245L1300 1249V1010L1245 1014L1233 877L1536 928V584L1233 635L1245 502L1300 506V266L1266 268L1270 233H1030L1034 289L899 301L950 0H606L657
301L522 289L526 233H287L291 268L256 266V506L309 502L322 635L20 584V928L322 877L309 1014L256 1010V1249L289 1247L287 1278H526L520 1225ZM1051 1030L899 1042V877H1063L1051 1030ZM657 877V1042L506 1030L492 877H657ZM899 635V471L1051 483L1063 635H899ZM504
485L657 471V635H492L504 485Z" />
<glyph unicode=" " glyph-name="space" horiz-adv-x="550" />
<glyph unicode="!" glyph-name="exclam" horiz-adv-x="731" d="M250 479L166 1516H580L498 479H250ZM197 0V303H549V0H197Z" />
<glyph unicode="&quot;" glyph-name="quotedbl" horiz-adv-x="942" d="M567 963L532 1364V1516H811V1364L776 963H567ZM164 963L129 1364V1516H410V1364L375 963H164Z" />
<glyph unicode="#" glyph-name="numbersign" horiz-adv-x="1562" d="M197 0L276 381H51V625H328L383 891H139V1135H434L514 1516H809L729 1135H958L1038 1516H1333L1253 1135H1509V891H1202L1147 625H1421V381H1096L1016 0H721L801 381H573L492 0H197ZM623 625H852L907
891H680L623 625Z" />
<glyph unicode="$" glyph-name="dollar" horiz-adv-x="1398" d="M602 -18Q417 0 294 85T88 307L311 451Q386 347 452 289T612 213V647Q553 662 507 676T409 711T318 755T242 813T182 886T144 977T129 1090Q129 1282 256 1400T602 1536V1677H799V1530Q907 1515
994 1474T1135 1382T1239 1260L1018 1100Q965 1175 915 1220T793 1286V887Q886 865 955 842T1090 781T1199 698T1266 584T1292 432Q1292 345 1264 271T1177 135T1023 33T799 -18V-190H602V-18ZM612 1298Q523 1286 478 1238T432 1118T475 1005T612 934V1298ZM793
211Q892 225 940 271T989 401Q989 477 942 522T793 600V211Z" />
<glyph unicode="%" glyph-name="percent" horiz-adv-x="2269" d="M500 549Q308 549 198 683T88 1044Q88 1271 199 1405T500 1540Q688 1540 797 1406T907 1047Q907 821 798 685T500 549ZM541 0L1446 1516H1729L823 0H541ZM1962 -20T1772 -20T1472 115T1362 475Q1362
702 1473 837T1774 973Q1961 973 2071 838T2181 477T2072 116ZM500 756Q637 756 637 1044Q637 1329 500 1329Q358 1329 358 1047Q358 756 500 756ZM1774 188Q1911 188 1911 477Q1911 760 1772 760Q1632 760 1632 477Q1632 188 1774 188Z" />
<glyph unicode="&amp;" glyph-name="ampersand" horiz-adv-x="1521" d="M604 -29Q327 -29 180 79T33 375Q33 446 52 508T101 615T179 701T273 770T381 827Q285 1014 285 1161Q285 1238 311 1305T388 1427T523 1512T715 1544Q815 1544 892 1517T1016 1442T1085
1336T1108 1212T1089 1089T1039 988T960 905T866 837T758 778Q776 751 850 659Q946 540 1016 473Q1091 602 1112 780H1393Q1353 504 1237 315Q1360 248 1516 248V-20Q1231 -17 1032 96Q853 -29 604 -29ZM653 952Q740 1002 787 1060T834 1200Q834 1253 807 1291T721
1329T626 1291T588 1180Q588 1073 653 952ZM606 201Q721 201 813 260Q717 355 606 494Q547 569 500 635Q367 546 367 422Q367 318 432 260T606 201Z" />
<glyph unicode="&apos;" glyph-name="quotesingle" horiz-adv-x="540" d="M164 963L129 1364V1516H410V1364L375 963H164Z" />
<glyph unicode="(" glyph-name="parenleft" horiz-adv-x="827" d="M614 -420Q354 -201 222 42T90 584Q90 882 222 1125T614 1587L766 1427Q434 1058 434 584Q434 336 524 119T776 -270L614 -420Z" />
<glyph unicode=")" glyph-name="parenright" horiz-adv-x="827" d="M213 -420L51 -270Q211 -97 301 119T391 584Q391 1062 59 1427L213 1587Q472 1370 603 1127T735 584Q735 284 604 41T213 -420Z" />
<glyph unicode="*" glyph-name="asterisk" horiz-adv-x="1040" d="M375 618L203 721L393 997L55 975V1167L395 1143L203 1421L375 1524L520 1219L666 1524L840 1421L647 1143L985 1167V975L647 997L840 721L668 618L520 924L375 618Z" />
<glyph unicode="+" glyph-name="plus" horiz-adv-x="1323" d="M530 178V588H137V848H530V1257H793V848H1186V588H793V178H530Z" />
<glyph unicode="," glyph-name="comma" horiz-adv-x="577" d="M160 -246L246 0H113V317H465V45L313 -246H160Z" />
<glyph unicode="-" glyph-name="hyphen" horiz-adv-x="731" d="M96 532V754H635V532H96Z" />
<glyph unicode="." glyph-name="period" horiz-adv-x="577" d="M113 0V317H465V0H113Z" />
<glyph unicode="/" glyph-name="slash" horiz-adv-x="1312" d="M47 0L928 1516H1266L385 0H47Z" />
<glyph unicode="0" glyph-name="zero" horiz-adv-x="1425" d="M1008 -29T713 -29T250 185T82 758T250 1330T713 1544T1174 1331T1341 758T1175 185ZM713 231Q859 231 935 365T1012 758Q1012 1015 935 1146T713 1278Q414 1278 414 758Q414 500 491 366T713 231Z" />
<glyph unicode="1" glyph-name="one" horiz-adv-x="937" d="M66 0V260H340V1214Q282 1184 208 1165T70 1145V1417Q251 1423 348 1516H662V260H901V0H66Z" />
<glyph unicode="2" glyph-name="two" horiz-adv-x="1257" d="M53 0V33Q53 106 61 164T97 295T173 432T305 571T506 721Q553 751 573 763T630 800T681 836T722 867T759 900T785 931T808 964T822 998T832 1038T834 1081Q834 1167 782 1216T635 1266Q545 1266 457
1209T303 1049L68 1214Q136 1319 216 1390T405 1502T645 1544Q887 1544 1022 1426T1157 1104Q1157 1049 1150 1005T1122 908T1065 810T968 710T821 602Q642 488 549 406T449 260H1167V0H53Z" />
<glyph unicode="3" glyph-name="three" horiz-adv-x="1275" d="M612 -29Q236 -29 23 231L229 416Q302 327 400 282T598 236Q725 236 791 290T858 446Q858 568 770 619T496 670H420V913H502Q602 913 669 928T769 972T814 1032T827 1104Q827 1272 608 1272Q415 1272
266 1128L84 1337Q185 1433 335 1487T647 1542Q893 1542 1025 1441T1157 1155Q1157 1021 1080 927T860 803Q1027 776 1116 675T1206 426Q1206 215 1044 93T612 -29Z" />
<glyph unicode="4" glyph-name="four" horiz-adv-x="1384" d="M780 0V297H45V539L735 1516H1102V559H1358V297H1102V0H780ZM389 559H780V1118H776L389 559Z" />
<glyph unicode="5" glyph-name="five" horiz-adv-x="1247" d="M600 -29Q257 -29 33 172L201 391Q278 321 377 279T580 236Q724 236 796 308T868 504Q868 634 801 706T606 778Q446 778 328 633L113 700L174 1516H1094L1077 1264H430L401 928Q501 1022 707 1022Q943
1022 1071 883T1200 516Q1200 271 1039 121T600 -29Z" />
<glyph unicode="6" glyph-name="six" horiz-adv-x="1339" d="M700 -29Q421 -29 252 170T82 731Q82 900 121 1038T225 1269T377 1425T557 1516T750 1544Q905 1544 1006 1510T1190 1417L1049 1192Q980 1238 916 1259T764 1280Q616 1280 520 1163T408 840Q585 977
786 977Q889 977 976 949T1131 864T1237 713T1276 496Q1276 259 1117 115T700 -29ZM715 223Q831 223 897 297T963 481Q963 532 951 574T912 653T836 710T719 731Q537 731 408 604Q420 414 498 319T715 223Z" />
<glyph unicode="7" glyph-name="seven" horiz-adv-x="1103" d="M166 0L745 1247H25V1516H1085V1270L502 0H166Z" />
<glyph unicode="8" glyph-name="eight" horiz-adv-x="1306" d="M653 -29Q367 -29 205 82T43 391Q43 526 136 627T379 791Q243 861 178 943T113 1161Q113 1235 148 1302T248 1424T418 1511T653 1544Q786 1544 892 1512T1062 1424T1159 1302T1192 1161Q1192 1042
1124 949T930 801Q1010 765 1065 732T1167 650T1238 538T1262 391Q1262 195 1100 83T653 -29ZM676 909Q781 961 825 1010T870 1130T817 1254T655 1309T491 1259T436 1137Q436 1056 493 1008T676 909ZM653 199Q780 199 854 259T928 410Q928 494 860 551T629 674Q505
614 442 551T379 410Q379 320 453 260T653 199Z" />
<glyph unicode="9" glyph-name="nine" horiz-adv-x="1339" d="M590 -29Q431 -29 327 7T139 104L283 322Q355 272 420 250T575 227Q722 227 818 347T930 676Q751 539 551 539Q449 539 363 567T208 652T102 803T63 1020Q63 1256 222 1400T639 1544Q918 1544 1086
1346T1255 784Q1255 616 1217 477T1113 246T962 91T782 -1T590 -29ZM621 784Q801 784 930 911Q908 1284 625 1284Q507 1284 442 1213T377 1034Q377 983 388 941T426 862T502 805T621 784Z" />
<glyph unicode=":" glyph-name="colon" horiz-adv-x="604" d="M125 774V1092H479V774H125ZM125 0V317H479V0H125Z" />
<glyph unicode=";" glyph-name="semicolon" horiz-adv-x="604" d="M125 774V1092H479V774H125ZM168 -246L256 0H125V317H479V53L322 -246H168Z" />
<glyph unicode="&lt;" glyph-name="less" horiz-adv-x="1323" d="M1206 98L123 573V754L1206 1229V958L475 664L1206 369V98Z" />
<glyph unicode="=" glyph-name="equal" horiz-adv-x="1323" d="M143 788V1022H1178V788H143ZM143 322V555H1178V322H143Z" />
<glyph unicode="&gt;" glyph-name="greater" horiz-adv-x="1323" d="M127 98V369L858 664L127 958V1229L1210 754V573L127 98Z" />
<glyph unicode="?" glyph-name="question" horiz-adv-x="1216" d="M432 475Q424 548 424 623Q424 731 481 804T641 934Q732 985 768 1028T805 1143Q805 1206 754 1244T612 1282Q516 1282 420 1231T260 1104L61 1290Q288 1544 647 1544Q875 1544 1001 1440T1128
1169Q1128 1100 1110 1045T1057 947T982 875T887 815Q858 800 837 788T797 762T765 739T742 713T725 688T714 657T707 623T704 583T702 537T702 481Q702 477 702 475H432ZM391 0V303H743V0H391Z" />
<glyph unicode="@" glyph-name="at" horiz-adv-x="1777" d="M870 -29Q692 -29 544 30T296 192T141 440T86 754T145 1069T308 1319T564 1484T893 1544T1219 1487T1472 1329T1634 1086T1692 778Q1692 568 1585 440T1288 311Q1173 311 1109 358T1016 494Q949 423
873 381T694 338Q567 338 494 420T420 653Q420 900 533 1051T811 1202Q901 1202 954 1175T1049 1098L1063 1186H1313L1212 575Q1187 446 1325 446Q1424 446 1485 532T1546 770Q1546 1053 1367 1228T891 1403T419 1223T242 754Q242 564 318 416T540 183T881 98Q1110
98 1266 203L1335 102Q1151 -29 870 -29ZM803 528Q887 528 969 610L1020 926Q986 963 953 979T872 995Q777 995 725 902T672 680Q672 604 701 566T803 528Z" />
<glyph unicode="A" glyph-name="A" horiz-adv-x="1460" d="M35 0L571 1522H889L1425 0H1087L975 338H459L342 0H35ZM541 580H897L723 1096H719L541 580Z" />
<glyph unicode="B" glyph-name="B" horiz-adv-x="1460" d="M156 0V1516H762Q852 1516 926 1507T1072 1473T1193 1406T1273 1298T1303 1141Q1303 990 1222 904T1014 793V788Q1343 731 1343 418Q1343 308 1298 225T1173 94T999 23T793 0H156ZM483 891H729Q983 891
983 1073Q983 1165 923 1211T733 1257H483V891ZM483 254H752Q1018 254 1018 457Q1018 655 737 655H483V254Z" />
<glyph unicode="C" glyph-name="C" horiz-adv-x="1492" d="M772 -29Q622 -29 498 20T280 164T136 412T84 760Q84 952 137 1103T285 1350T502 1494T772 1544Q911 1544 1019 1509T1199 1407T1315 1257T1386 1067L1071 975Q1051 1045 1028 1095T969 1186T885 1247T770
1268Q600 1268 509 1133T418 760Q418 517 511 379T774 240Q903 240 977 318T1094 559L1407 489Q1378 370 1330 279T1206 117T1021 9T772 -29Z" />
<glyph unicode="D" glyph-name="D" horiz-adv-x="1515" d="M156 0V1516H621Q764 1516 883 1492T1106 1411T1280 1270T1391 1056T1432 766Q1432 599 1391 468T1279 250T1104 106T881 25T621 0H156ZM487 270H643Q888 270 993 385T1098 762Q1098 1008 991 1122T639
1237H487V270Z" />
<glyph unicode="E" glyph-name="E" horiz-adv-x="1296" d="M156 0V1516H1188V1237H489V911H995V647H489V270H1225V0H156Z" />
<glyph unicode="F" glyph-name="F" horiz-adv-x="1200" d="M156 0V1516H1157V1237H489V868H965V604H489V0H156Z" />
<glyph unicode="G" glyph-name="G" horiz-adv-x="1558" d="M748 -29Q580 -29 452 30T244 196T124 447T84 764Q84 1121 270 1332T774 1544Q887 1544 978 1520T1150 1442T1291 1291T1386 1059L1081 975Q1034 1131 960 1199T772 1268Q729 1268 688 1258T596 1215T508
1130T446 985T420 770T443 553T502 400T588 305T686 254T786 240Q910 240 992 312T1098 512H834V760H1415V0H1147V209H1143Q1130 172 1099 133T1020 57T901 -5T748 -29Z" />
<glyph unicode="H" glyph-name="H" horiz-adv-x="1574" d="M156 0V1516H489V928H1085V1516H1419V0H1085V647H489V0H156Z" />
<glyph unicode="I" glyph-name="I" horiz-adv-x="675" d="M172 0V1516H504V0H172Z" />
<glyph unicode="J" glyph-name="J" horiz-adv-x="1095" d="M463 -29Q317 -29 212 15T20 139L207 348Q329 238 446 238Q635 238 635 498V1516H969V446Q969 338 941 253T853 103T695 5T463 -29Z" />
<glyph unicode="K" glyph-name="K" horiz-adv-x="1470" d="M156 0V1516H489V889L997 1516H1386L872 924L1440 0H1063L655 672L489 485V0H156Z" />
<glyph unicode="L" glyph-name="L" horiz-adv-x="1200" d="M156 0V1516H489V270H1157V0H156Z" />
<glyph unicode="M" glyph-name="M" horiz-adv-x="1859" d="M156 0V1516H596L934 401H938L1253 1516H1704V0H1382V1034H1378Q1357 907 1294 696L1067 0H772L547 696Q492 876 459 1051H455V0H156Z" />
<glyph unicode="N" glyph-name="N" horiz-adv-x="1591" d="M156 0V1516H489L1124 549H1128V1516H1436V0H1128L467 975H463V0H156Z" />
<glyph unicode="O" glyph-name="O" horiz-adv-x="1597" d="M799 -29Q687 -29 584 1T389 95T230 250T123 472T84 758T123 1043T230 1265T389 1420T583 1514T799 1544Q910 1544 1013 1514T1207 1420T1365 1265T1472 1044T1511 758T1472 472T1366 250T1207 95T1013
1T799 -29ZM799 240Q974 240 1077 380T1180 758Q1180 995 1077 1131T799 1268Q622 1268 520 1132T418 758Q418 519 520 380T799 240Z" />
<glyph unicode="P" glyph-name="P" horiz-adv-x="1384" d="M156 0V1516H707Q811 1516 896 1504T1063 1460T1201 1374T1291 1234T1325 1030Q1325 539 702 539H487V0H156ZM487 797H715Q866 797 932 853T999 1022Q999 1132 933 1187T715 1243H487V797Z" />
<glyph unicode="Q" glyph-name="Q" horiz-adv-x="1597" d="M1106 -406Q881 -406 748 -294T608 -4Q496 22 402 82T236 236T123 464T82 758Q82 913 121 1043T228 1265T387 1420T581 1514T797 1544Q908 1544 1011 1514T1205 1420T1363 1265T1470 1044T1509 758Q1509
592 1465 454T1342 222T1164 69T946 -12Q956 -42 972 -64T1012 -100T1061 -122T1121 -135T1187 -140T1262 -141H1366V-406H1106ZM797 240Q972 240 1074 379T1176 758Q1176 995 1074 1131T797 1268Q620 1268 517 1132T414 758Q414 519 517 380T797 240Z" />
<glyph unicode="R" glyph-name="R" horiz-adv-x="1443" d="M156 0V1516H725Q1015 1516 1168 1404T1321 1047Q1321 871 1242 767T1006 614L1343 0H991L676 571H483V0H156ZM483 829H711Q858 829 926 877T995 1038Q995 1148 927 1195T711 1243H483V829Z" />
<glyph unicode="S" glyph-name="S" horiz-adv-x="1417" d="M719 -29Q484 -29 324 71T74 344L326 494Q389 370 496 303T735 236Q855 236 927 280T999 410Q999 490 927 536T692 629Q489 686 412 719Q226 799 169 934Q139 1003 139 1092Q139 1301 289 1422T686 1544Q798
1544 895 1519T1065 1449T1192 1351T1288 1233L1057 1057Q997 1154 896 1213T684 1272Q580 1272 523 1231T465 1120Q465 1084 479 1056T517 1007T582 967T666 934T776 901Q847 882 891 869T1000 831T1105 785T1191 726T1264 649T1307 553T1325 432Q1325 338 1289
257T1182 111T991 9T719 -29Z" />
<glyph unicode="T" glyph-name="T" horiz-adv-x="1327" d="M496 0V1237H45V1516H1282V1237H829V0H496Z" />
<glyph unicode="U" glyph-name="U" horiz-adv-x="1484" d="M1051 -25T743 -25T283 134T131 580V1516H465V588Q465 246 748 246Q892 246 959 332T1026 588V1516H1354V582Q1354 293 1203 134Z" />
<glyph unicode="V" glyph-name="V" horiz-adv-x="1429" d="M557 -6L35 1516H373L719 432H723L1081 1516H1395L872 -6H557Z" />
<glyph unicode="W" glyph-name="W" horiz-adv-x="1957" d="M446 0L43 1516H379L539 825Q594 607 612 494H616Q635 621 686 823L840 1516H1147L1311 819Q1319 786 1335 719T1362 604T1382 494H1386Q1400 587 1454 815L1608 1516H1915L1520 0H1235L995 1055H991L735 0H446Z" />
<glyph unicode="X" glyph-name="X" horiz-adv-x="1484" d="M66 0L551 801L109 1516H489L760 1061L1016 1516H1360L928 799L1419 0H1049L727 530L416 0H66Z" />
<glyph unicode="Y" glyph-name="Y" horiz-adv-x="1415" d="M541 0V643L18 1516H362L709 926L1057 1516H1397L872 643V0H541Z" />
<glyph unicode="Z" glyph-name="Z" horiz-adv-x="1351" d="M61 0V229L852 1239H113V1516H1272V1278L498 270H1272V0H61Z" />
<glyph unicode="[" glyph-name="bracketleft" horiz-adv-x="909" d="M141 -410V1516H850V1286H473V-180H850V-410H141Z" />
<glyph unicode="\" glyph-name="backslash" horiz-adv-x="1251" d="M897 0L16 1516H354L1235 0H897Z" />
<glyph unicode="]" glyph-name="bracketright" horiz-adv-x="909" d="M57 -410V-180H434V1286H57V1516H766V-410H57Z" />
<glyph unicode="^" glyph-name="asciicircum" horiz-adv-x="1132" d="M190 1212L455 1563H676L940 1212H754L563 1364L379 1212H190Z" />
<glyph unicode="_" glyph-name="underscore" horiz-adv-x="1024" d="M0 -324V-94H1024V-324H0Z" />
<glyph unicode="`" glyph-name="grave" horiz-adv-x="1024" d="M504 1208L199 1563H530L721 1208H504Z" />
<glyph unicode="a" glyph-name="a" horiz-adv-x="1181" d="M365 -16Q234 -16 144 64T53 279Q53 469 220 574T745 709V735Q745 866 598 866Q413 866 240 731L100 920Q316 1114 645 1114Q865 1114 966 1008T1067 686V266Q1067 74 1098 0H770Q745 80 745 160Q589
-16 365 -16ZM496 231Q652 231 745 326V528Q375 491 375 336Q375 285 407 258T496 231Z" />
<glyph unicode="b" glyph-name="b" horiz-adv-x="1277" d="M786 -16Q584 -16 455 129V0H125V1516H455V924Q590 1114 791 1114Q982 1114 1096 968T1210 547T1095 128T786 -16ZM674 231Q776 231 828 312T881 545Q881 686 829 764T670 842Q560 842 455 735V332Q510
279 560 255T674 231Z" />
<glyph unicode="c" glyph-name="c" horiz-adv-x="1136" d="M602 -23Q522 -23 448 -5T303 55T181 161T98 323T66 545Q66 671 100 771T190 934T318 1038T465 1097T616 1114Q702 1114 773 1096T893 1048T982 973T1046 883T1092 780L815 688Q784 789 736 830T612 872Q510
872 453 788T395 543Q395 389 447 299T608 209Q761 209 823 403L1096 309Q959 -23 602 -23Z" />
<glyph unicode="d" glyph-name="d" horiz-adv-x="1277" d="M485 -16Q292 -16 179 123T66 537Q66 813 181 963T489 1114Q704 1114 821 954V1516H1151V266Q1151 73 1184 0H846Q835 19 828 69T821 164Q691 -16 485 -16ZM608 231Q718 231 821 338V741Q766 794 716
818T604 842Q501 842 448 765T395 539Q395 396 448 314T608 231Z" />
<glyph unicode="e" glyph-name="e" horiz-adv-x="1181" d="M623 -23Q534 -23 455 -5T304 55T180 162T97 324T66 545Q66 667 101 766T193 929T324 1035T470 1096T614 1114Q688 1114 754 1099T888 1042T1005 935T1085 759T1116 506V457H393Q416 207 647 207Q738
207 824 244T971 338L1098 141Q905 -23 623 -23ZM397 651H821Q797 879 612 879Q531 879 473 823T397 651Z" />
<glyph unicode="f" glyph-name="f" horiz-adv-x="829" d="M223 0V852H41V1092H223V1167Q223 1217 229 1257T249 1340T291 1414T360 1471T462 1510T602 1524Q646 1524 715 1519T801 1509V1280Q767 1288 705 1288Q632 1288 592 1262T551 1157V1092H788V852H551V0H223Z" />
<glyph unicode="g" glyph-name="g" horiz-adv-x="1259" d="M555 -410Q398 -410 288 -394T113 -344T19 -267T-10 -164Q-10 -89 42 -34T178 55Q104 104 104 186Q104 307 262 410Q174 461 128 542T82 723Q82 893 213 1003T573 1114Q808 1114 940 995Q994 1042 1072
1072T1221 1108V856Q1129 856 1036 831Q1057 786 1057 723Q1057 551 930 443T573 334Q494 334 406 352Q369 323 369 297Q369 268 397 258T492 244L655 233Q936 223 1059 151T1182 -76Q1182 -185 1100 -261T879 -374T555 -410ZM578 516Q666 516 715 570T764 711T716
851T578 905Q490 905 441 851T391 711Q391 625 441 571T578 516ZM608 -244Q736 -244 814 -214T893 -131Q893 -94 875 -74T793 -40T602 -20L430 -12L358 -6Q297 -46 297 -104Q297 -176 370 -210T608 -244Z" />
<glyph unicode="h" glyph-name="h" horiz-adv-x="1265" d="M125 0V1516H455V920Q602 1114 831 1114Q979 1114 1065 1037T1151 797V0H821V692Q821 768 791 805T694 842Q579 842 455 733V0H125Z" />
<glyph unicode="i" glyph-name="i" horiz-adv-x="602" d="M135 1241V1505H467V1241H135ZM137 0V1092H465V0H137Z" />
<glyph unicode="j" glyph-name="j" horiz-adv-x="602" d="M135 1241V1505H467V1241H135ZM111 -416Q65 -416 -5 -411T-90 -401V-178Q-54 -190 4 -190Q72 -190 104 -155T137 -41V1092H465V-104Q465 -156 459 -195T430 -278T371 -350T268 -397T111 -416Z" />
<glyph unicode="k" glyph-name="k" horiz-adv-x="1198" d="M125 0V1516H455V684L795 1092H1149L793 684L1169 0H829L588 444L455 295V0H125Z" />
<glyph unicode="l" glyph-name="l" horiz-adv-x="602" d="M137 0V1516H465V0H137Z" />
<glyph unicode="m" glyph-name="m" horiz-adv-x="1908" d="M125 0V1092H455V920Q515 1000 606 1057T813 1114Q1061 1114 1112 920Q1174 999 1265 1056T1473 1114Q1633 1114 1712 1024T1792 780V0H1462V692Q1462 771 1437 806T1343 842Q1287 842 1236 815T1124
733V0H795V692Q795 771 770 806T676 842Q619 842 568 815T455 733V0H125Z" />
<glyph unicode="n" glyph-name="n" horiz-adv-x="1265" d="M127 0V1092H457V920Q604 1114 834 1114Q980 1114 1065 1037T1151 797V0H823V692Q823 768 793 805T694 842Q581 842 457 733V0H127Z" />
<glyph unicode="o" glyph-name="o" horiz-adv-x="1247" d="M708 -23T625 -23T465 -5T314 55T186 161T99 323T66 545Q66 669 99 768T185 930T313 1036T464 1096T625 1114Q708 1114 784 1097T934 1037T1062 931T1149 768T1182 545Q1182 422 1149 324T1062 162T935
56T785 -5ZM625 209Q738 209 795 298T852 543Q852 613 839 671T800 775T729 846T625 872Q510 872 453 784T395 543Q395 447 416 375T491 256T625 209Z" />
<glyph unicode="p" glyph-name="p" horiz-adv-x="1277" d="M125 -410V1092H455V926Q591 1114 791 1114Q982 1114 1096 968T1210 547T1095 128T786 -16Q584 -16 455 129V-410H125ZM674 231Q776 231 828 312T881 545Q881 686 829 764T670 842Q560 842 455 735V332Q510
279 560 255T674 231Z" />
<glyph unicode="q" glyph-name="q" horiz-adv-x="1277" d="M821 -410V156Q685 -16 485 -16Q292 -16 179 123T66 537Q66 813 181 963T489 1114Q599 1114 679 1076T821 956V1092H1151V-410H821ZM608 231Q718 231 821 338V741Q766 794 716 818T604 842Q501 842 448
765T395 539Q395 396 448 314T608 231Z" />
<glyph unicode="r" glyph-name="r" horiz-adv-x="866" d="M125 0V1092H455V909H457Q588 1114 825 1114H836L831 821Q795 827 745 827Q569 827 455 678V0H125Z" />
<glyph unicode="s" glyph-name="s" horiz-adv-x="1093" d="M555 -23Q243 -23 45 145L176 330Q250 265 353 227T555 188Q634 188 681 215T729 295Q729 350 684 377T522 426Q481 433 453 439T385 454T319 474T259 499T204 532T160 574T124 626T103 690T94 768Q94
929 212 1021T518 1114Q678 1114 789 1076T997 961L868 774Q696 893 547 893Q477 893 438 868T399 797Q399 749 443 725T594 680Q637 673 666 667T736 652T804 632T866 607T923 575T969 535T1005 484T1027 422T1036 346Q1036 250 997 178T890 62T737 -2T555 -23Z"
/>
<glyph unicode="t" glyph-name="t" horiz-adv-x="874" d="M584 -14Q488 -14 421 0T314 39T251 106T221 194T213 307V852H31V1092H213V1466H541V1092H821V852H541V379Q541 290 572 258T692 225Q768 225 801 238V2Q781 -3 708 -8T584 -14Z" />
<glyph unicode="u" glyph-name="u" horiz-adv-x="1265" d="M434 -23Q287 -23 201 55T115 295V1092H444V391Q444 316 475 278T573 240Q682 240 811 350V1092H1141V0H811V170Q659 -23 434 -23Z" />
<glyph unicode="v" glyph-name="v" horiz-adv-x="1105" d="M387 -2L-4 1092H336L565 365H569L799 1092H1108L719 -2H387Z" />
<glyph unicode="w" glyph-name="w" horiz-adv-x="1587" d="M324 0L4 1092H336L430 700Q473 532 502 367H506Q536 533 582 709L676 1092H932L1032 702Q1063 593 1110 367H1114Q1151 556 1190 698L1290 1092H1583L1264 0H958L795 666H791L627 0H324Z" />
<glyph unicode="x" glyph-name="x" horiz-adv-x="1122" d="M23 0L397 563L49 1092H395L584 791L762 1092H1094L741 563L1110 0H766L557 330L354 0H23Z" />
<glyph unicode="y" glyph-name="y" horiz-adv-x="1146" d="M297 -418Q125 -418 -14 -379L55 -125Q167 -154 262 -154Q316 -154 349 -132T401 -59L422 -6L4 1092H344L584 383H588L829 1092H1149L690 -115Q650 -215 604 -278T480 -380T297 -418Z" />
<glyph unicode="z" glyph-name="z" horiz-adv-x="1085" d="M59 0V170L588 852H98V1092H995V918L465 233H1036V0H59Z" />
<glyph unicode="{" glyph-name="braceleft" horiz-adv-x="903" d="M569 -410Q431 -410 355 -327T279 -106V190Q279 265 266 313T222 388T152 425T51 436V670Q112 670 152 680T222 717T265 792T279 915V1212Q279 1350 355 1433T569 1516H860V1286H770Q610 1286
610 1124V870Q610 727 567 656T436 555V551Q524 522 567 451T610 236V-18Q610 -180 770 -180H860V-410H569Z" />
<glyph unicode="|" glyph-name="bar" horiz-adv-x="819" d="M246 -410V1516H571V-410H246Z" />
<glyph unicode="}" glyph-name="braceright" horiz-adv-x="903" d="M43 -410V-180H133Q293 -180 293 -18V266Q293 340 304 389T339 470T392 519T467 551V555Q421 570 393 587T340 635T304 716T293 840V1124Q293 1288 135 1288H45L43 1516H365Q503 1516 564 1448T625
1243V915Q625 771 677 721T852 670V436Q791 436 751 426T682 389T639 314T625 190V-137Q625 -274 564 -342T365 -410H43Z" />
<glyph unicode="~" glyph-name="asciitilde" horiz-adv-x="1071" d="M692 762Q642 762 596 780T522 819T460 859T397 877Q313 877 313 766H135Q135 1092 379 1092Q429 1092 475 1074T549 1035T611 995T674 977Q758 977 758 1087H934Q934 762 692 762Z" />
</font>
</defs>
</svg>
