<?xml version="1.0" standalone="no"?> <!DOCTYPE svg PUBLIC "-//W3C//DTD SVG 1.0//EN" "http://www.w3.org/TR/2001/REC-SVG-20010904/DTD/svg10.dtd" > <svg xmlns="http://www.w3.org/2000/svg" width="100%" height="100%">
<defs >
<font id="font25" horiz-adv-x="977" ><font-face
    font-family="BentonSans Medium"
    units-per-em="2048"
    panose-1="2 0 6 3 3 0 0 2 0 4"
    ascent="1515"
    descent="-410"
    alphabetic="0" />
<missing-glyph horiz-adv-x="1556" d="M330 309L285 305V498L344 494L356 664L20 623V889L356 848L342 1022L285 1018V1210L328 1206L326 1249H518L514 1192L686 1180L645 1516H911L870 1180L1042 1192L1038 1249H1231L1227 1206L1272 1210V1018L1212 1022L1200
848L1536 889V623L1200 664L1212 494L1272 498V305L1227 309L1231 262H1038L1042 324L870 336L911 0H645L686 336L514 324L518 262H326L330 309ZM870 1047V848H1067L1053 1034L870 1047ZM686 848V1047L502 1034L489 848H686ZM870 664V469L1055 481L1067 664H870ZM502
481L686 469V664H489L502 481Z" />
<glyph unicode=" " glyph-name="space" horiz-adv-x="514" />
<glyph unicode="!" glyph-name="exclam" horiz-adv-x="694" d="M262 453L195 1516H510L442 453H262ZM211 0V256H494V0H211Z" />
<glyph unicode="&quot;" glyph-name="quotedbl" horiz-adv-x="894" d="M561 979L526 1380V1516H750V1380L715 979H561ZM180 979L145 1380V1516H369V1380L334 979H180Z" />
<glyph unicode="#" glyph-name="numbersign" horiz-adv-x="1515" d="M213 0L297 408H68V598H338L403 918H156V1108H444L530 1516H758L674 1108H969L1055 1516H1282L1196 1108H1448V918H1157L1090 598H1360V408H1051L965 0H737L821 408H526L440 0H213ZM565 598H862L928
918H633L565 598Z" />
<glyph unicode="$" glyph-name="dollar" horiz-adv-x="1368" d="M602 -14Q271 16 100 297L279 418Q352 314 427 255T610 180V684Q553 699 509 712T414 746T326 789T253 844T194 915T157 1003T143 1112Q143 1290 267 1404T602 1532V1677H766V1528Q923 1509 1023
1441T1194 1264L1020 1128Q964 1214 906 1262T760 1325V870Q850 847 915 825T1048 765T1158 682T1226 570T1253 418Q1253 331 1223 258T1134 126T981 32T766 -14V-190H602V-14ZM610 1333Q496 1324 439 1271T381 1135Q381 1046 437 996T610 911V1333ZM760 178Q884
190 950 240T1016 395Q1016 494 953 549T760 643V178Z" />
<glyph unicode="%" glyph-name="percent" horiz-adv-x="2154" d="M485 580Q307 580 206 710T104 1057Q104 1277 207 1408T487 1540T764 1411T866 1061Q866 844 764 712T485 580ZM514 0L1419 1516H1640L735 0H514ZM1669 -20Q1490 -20 1389 110T1288 457Q1288 677
1391 807T1671 938Q1846 938 1948 809T2050 461Q2050 244 1948 112T1669 -20ZM487 760Q570 760 611 839T653 1059Q653 1204 611 1281T485 1358T359 1280T317 1061Q317 916 360 838T487 760ZM1669 158Q1753 158 1795 237T1837 459Q1837 604 1795 681T1669 758Q1584
758 1542 680T1499 461Q1499 315 1541 237T1669 158Z" />
<glyph unicode="&amp;" glyph-name="ampersand" horiz-adv-x="1503" d="M578 -29Q334 -29 194 83T53 375Q53 460 80 531T158 657T268 752T403 831Q305 1013 305 1171Q305 1245 329 1311T401 1429T526 1513T702 1544Q793 1544 864 1519T978 1449T1043 1349T1065
1229Q1065 1150 1037 1083T955 963T842 871T702 791Q747 725 813 643Q932 492 1018 408Q1111 550 1141 770H1364Q1323 482 1188 285Q1329 190 1479 190V-20Q1342 -17 1236 14T1030 113Q844 -29 578 -29ZM616 930Q671 960 708 985T779 1045T831 1119T848 1208Q848
1268 810 1309T707 1350Q628 1350 585 1310T541 1186Q541 1065 616 930ZM600 176Q758 176 862 244Q769 331 623 514Q559 593 498 680Q309 560 309 408Q309 292 384 234T600 176Z" />
<glyph unicode="&apos;" glyph-name="quotesingle" horiz-adv-x="514" d="M180 979L145 1380V1516H369V1380L334 979H180Z" />
<glyph unicode="(" glyph-name="parenleft" horiz-adv-x="821" d="M625 -420Q367 -203 237 38T106 573Q106 868 236 1108T625 1567L741 1442Q567 1266 470 1046T373 573Q373 318 472 96T748 -303L625 -420Z" />
<glyph unicode=")" glyph-name="parenright" horiz-adv-x="821" d="M197 -420L74 -303Q251 -126 350 96T449 573Q449 826 352 1046T80 1442L197 1567Q455 1349 585 1109T715 573Q715 280 585 39T197 -420Z" />
<glyph unicode="*" glyph-name="asterisk" horiz-adv-x="1040" d="M369 662L223 745L424 1036L72 1012V1171L426 1147L223 1438L369 1524L520 1202L672 1524L817 1438L616 1147L969 1171V1012L616 1036L817 745L674 662L520 981L369 662Z" />
<glyph unicode="+" glyph-name="plus" horiz-adv-x="1314" d="M553 168V598H137V801H553V1231H762V801H1180V598H762V168H553Z" />
<glyph unicode="," glyph-name="comma" horiz-adv-x="565" d="M178 -229L250 0H141V266H424V35L295 -229H178Z" />
<glyph unicode="-" glyph-name="hyphen" horiz-adv-x="731" d="M113 553V733H618V553H113Z" />
<glyph unicode="." glyph-name="period" horiz-adv-x="565" d="M141 0V266H424V0H141Z" />
<glyph unicode="/" glyph-name="slash" horiz-adv-x="1234" d="M47 0L928 1516H1188L307 0H47Z" />
<glyph unicode="0" glyph-name="zero" horiz-adv-x="1388" d="M696 -29Q414 -29 254 185T94 758T254 1330T696 1544Q884 1544 1019 1446T1224 1172T1294 758T1225 345T1020 70T696 -29ZM696 197Q863 197 950 337T1038 758Q1038 1036 949 1175T696 1315Q350 1315
350 758Q350 479 440 338T696 197Z" />
<glyph unicode="1" glyph-name="one" horiz-adv-x="917" d="M88 0V225H367V1255Q310 1226 233 1206T92 1186V1417Q277 1423 375 1516H616V225H864V0H88Z" />
<glyph unicode="2" glyph-name="two" horiz-adv-x="1234" d="M72 0V33Q72 104 83 164T124 295T207 430T344 570T547 719Q625 769 670 801T759 870T824 940T857 1010T870 1096Q870 1200 806 1257T633 1315Q534 1315 441 1257T276 1092L86 1223Q296 1544 645 1544Q866
1544 993 1427T1120 1114Q1120 1016 1092 940T984 780T762 606Q580 491 485 399T371 225H1128V0H72Z" />
<glyph unicode="3" glyph-name="three" horiz-adv-x="1249" d="M600 -29Q234 -29 37 238L215 381Q355 197 596 197Q741 197 822 254T903 430Q903 571 801 631T481 692H412V901H487Q596 901 670 916T786 962T844 1030T862 1122Q862 1216 801 1264T602 1313Q505
1313 412 1275T252 1167L102 1327Q197 1427 335 1484T627 1542Q864 1542 989 1438T1114 1159Q1114 1023 1042 932T836 805Q1157 740 1157 420Q1157 215 1006 93T600 -29Z" />
<glyph unicode="4" glyph-name="four" horiz-adv-x="1325" d="M786 0V311H49V512L739 1516H1034V532H1290V311H1034V0H786ZM326 532H786V1210H782L326 532Z" />
<glyph unicode="5" glyph-name="five" horiz-adv-x="1224" d="M592 -29Q422 -29 283 32T47 201L205 369Q291 287 380 242T580 197Q741 197 823 280T905 502Q905 649 827 724T608 799Q413 799 301 653L131 709L190 1516H1063L1044 1290H389L358 899Q464 1012 676
1012Q901 1012 1030 875T1159 510Q1159 270 1006 121T592 -29Z" />
<glyph unicode="6" glyph-name="six" horiz-adv-x="1302" d="M680 -29Q411 -29 253 166T94 731Q94 926 146 1083T288 1339T497 1491T750 1544Q869 1544 971 1509T1141 1421L1018 1233Q892 1321 739 1321Q567 1321 461 1181T346 801Q530 965 745 965Q967 965 1098
841T1229 487Q1229 338 1155 219T955 36T680 -29ZM692 188Q830 188 907 265T985 479Q985 752 698 752Q595 752 498 708T348 602Q363 390 453 289T692 188Z" />
<glyph unicode="7" glyph-name="seven" horiz-adv-x="1112" d="M197 0L801 1290H55V1516H1065V1307L459 0H197Z" />
<glyph unicode="8" glyph-name="eight" horiz-adv-x="1280" d="M641 -35Q370 -35 215 80T59 381Q59 523 154 623T422 797Q273 869 201 951T129 1167Q129 1240 163 1307T259 1429T421 1517T641 1550Q765 1550 864 1518T1025 1430T1118 1308T1151 1167Q1151 935
858 803Q948 764 1009 728T1121 642T1196 528T1221 381Q1221 196 1066 81T641 -35ZM657 891Q791 953 847 1009T903 1149Q903 1229 837 1285T641 1341Q513 1341 445 1287T377 1153Q377 1065 442 1009T657 891ZM492 172T641 172T877 231T965 395Q965 493 885 561T623
702Q464 629 390 559T315 395Q315 294 403 233Z" />
<glyph unicode="9" glyph-name="nine" horiz-adv-x="1302" d="M553 -29Q434 -29 333 6T162 94L285 283Q413 190 563 190Q735 190 841 332T956 715Q774 551 557 551Q335 551 205 675T74 1028Q74 1177 148 1296T348 1479T623 1544Q892 1544 1050 1349T1208 784Q1208
589 1156 433T1014 177T806 24T553 -29ZM604 764Q707 764 804 808T954 913Q940 1125 850 1224T610 1323Q472 1323 395 1248T317 1036Q317 764 604 764Z" />
<glyph unicode=":" glyph-name="colon" horiz-adv-x="583" d="M152 819V1087H432V819H152ZM152 0V266H432V0H152Z" />
<glyph unicode=";" glyph-name="semicolon" horiz-adv-x="583" d="M152 819V1087H432V819H152ZM184 -229L256 0H152V266H432V39L301 -229H184Z" />
<glyph unicode="&lt;" glyph-name="less" horiz-adv-x="1314" d="M1200 119L117 590V737L1200 1208V995L391 664L1200 332V119Z" />
<glyph unicode="=" glyph-name="equal" horiz-adv-x="1314" d="M139 809V995H1174V809H139ZM139 342V528H1174V342H139Z" />
<glyph unicode="&gt;" glyph-name="greater" horiz-adv-x="1314" d="M123 119V332L932 664L123 995V1208L1206 737V590L123 119Z" />
<glyph unicode="?" glyph-name="question" horiz-adv-x="1171" d="M434 449Q428 498 428 592Q428 799 629 911Q741 976 782 1022T823 1153Q823 1230 761 1274T588 1319Q482 1319 389 1268T231 1143L70 1288Q280 1544 610 1544Q833 1544 954 1442T1075 1171Q1075
1101 1057 1045T1002 945T924 872T825 809Q779 784 749 764T698 719T666 673T649 614T642 544T641 449H434ZM397 0V256H678V0H397Z" />
<glyph unicode="@" glyph-name="at" horiz-adv-x="1777" d="M877 -29Q644 -29 465 71T189 350T92 756Q92 926 151 1072T315 1322T569 1485T891 1544Q1123 1544 1304 1447T1585 1175T1686 778Q1686 567 1584 441T1307 315Q1092 315 1044 469Q911 334 717 334Q586
334 508 416T430 653Q430 895 546 1049T838 1204Q990 1204 1085 1098L1100 1188H1296L1200 580Q1189 509 1222 470T1333 430Q1435 430 1500 519T1565 772Q1565 1062 1378 1244T891 1427Q693 1427 540 1342T303 1104T219 756Q219 559 301 406T534 166T883 80Q1107
80 1282 186L1337 98Q1142 -29 877 -29ZM788 487Q902 487 1006 588L1063 950Q1022 998 977 1019T870 1040Q797 1040 741 988T657 853T629 674Q629 579 668 533T788 487Z" />
<glyph unicode="A" glyph-name="A" horiz-adv-x="1427" d="M51 0L588 1522H840L1376 0H1114L991 360H416L291 0H51ZM494 586H915L709 1200H705L494 586Z" />
<glyph unicode="B" glyph-name="B" horiz-adv-x="1437" d="M172 0V1516H745Q863 1516 956 1496T1123 1432T1235 1315T1274 1139Q1274 988 1201 902T1006 791V786Q1319 729 1319 416Q1319 214 1172 107T782 0H172ZM424 883H721Q875 883 951 932T1028 1090T957 1244T725
1290H424V883ZM424 221H756Q918 221 992 274T1067 442Q1067 560 982 613T729 666H424V221Z" />
<glyph unicode="C" glyph-name="C" horiz-adv-x="1468" d="M764 -29Q617 -29 496 22T285 170T147 419T98 762Q98 948 148 1097T288 1344T499 1492T764 1544Q1236 1544 1352 1073L1108 1004Q1063 1161 985 1234T762 1307Q570 1307 463 1165T356 764Q356 495 464
350T766 205Q914 205 1000 282T1130 530L1374 475Q1316 237 1166 104T764 -29Z" />
<glyph unicode="D" glyph-name="D" horiz-adv-x="1490" d="M172 0V1516H604Q786 1516 928 1473T1175 1340T1335 1105T1391 764Q1391 565 1335 417T1173 179T926 44T604 0H172ZM428 229H627Q890 229 1012 354T1135 764Q1135 1034 1011 1156T623 1278H428V229Z" />
<glyph unicode="E" glyph-name="E" horiz-adv-x="1271" d="M172 0V1516H1151V1278H428V901H958V674H428V233H1192V0H172Z" />
<glyph unicode="F" glyph-name="F" horiz-adv-x="1183" d="M172 0V1516H1126V1278H428V872H934V645H428V0H172Z" />
<glyph unicode="G" glyph-name="G" horiz-adv-x="1525" d="M745 -29Q586 -29 462 29T258 194T139 444T98 764Q98 1125 279 1334T766 1544Q1229 1544 1354 1067L1116 1004Q1067 1171 985 1239T764 1307Q706 1307 652 1293T543 1240T448 1144T382 989T356 770T379
549T441 386T534 280T647 219T774 201Q928 201 1022 289T1128 543H823V750H1374V0H1163V219H1159Q1140 175 1107 134T1023 55T901 -6T745 -29Z" />
<glyph unicode="H" glyph-name="H" horiz-adv-x="1544" d="M172 0V1516H428V911H1116V1516H1372V0H1116V674H428V0H172Z" />
<glyph unicode="I" glyph-name="I" horiz-adv-x="634" d="M188 0V1516H446V0H188Z" />
<glyph unicode="J" glyph-name="J" horiz-adv-x="1064" d="M449 -29Q201 -29 37 145L197 303Q305 195 432 195Q545 195 602 252T659 455V1516H915V420Q915 207 793 89T449 -29Z" />
<glyph unicode="K" glyph-name="K" horiz-adv-x="1429" d="M172 0V1516H428V811L1024 1516H1327L811 932L1391 0H1098L643 735L428 498V0H172Z" />
<glyph unicode="L" glyph-name="L" horiz-adv-x="1183" d="M172 0V1516H428V233H1126V0H172Z" />
<glyph unicode="M" glyph-name="M" horiz-adv-x="1828" d="M172 0V1516H510L915 313H920L1313 1516H1657V0H1409V1130H1405Q1382 1025 1315 821L1020 0H793L500 821Q438 1003 408 1141H403V0H172Z" />
<glyph unicode="N" glyph-name="N" horiz-adv-x="1562" d="M172 0V1516H432L1149 434H1153V1516H1391V0H1157L414 1104H410V0H172Z" />
<glyph unicode="O" glyph-name="O" horiz-adv-x="1564" d="M784 -29Q639 -29 515 23T297 172T151 420T98 758T151 1095T297 1343T514 1492T784 1544T1052 1492T1268 1343T1413 1096T1466 758T1414 421T1269 173T1052 23T784 -29ZM784 203Q978 203 1093 349T1208
758Q1208 1020 1093 1164T784 1309Q587 1309 472 1165T356 758Q356 494 471 349T784 203Z" />
<glyph unicode="P" glyph-name="P" horiz-adv-x="1357" d="M172 0V1516H702Q804 1516 889 1502T1049 1453T1175 1367T1256 1234T1286 1051Q1286 944 1254 861T1168 725T1037 637T876 589T694 575H426V0H172ZM426 799H707Q878 799 956 856T1034 1042Q1034 1168
955 1225T705 1282H426V799Z" />
<glyph unicode="Q" glyph-name="Q" horiz-adv-x="1564" d="M1116 -395Q885 -395 764 -290T637 -10Q398 33 247 236T96 758Q96 944 151 1095T302 1343T520 1492T782 1544Q920 1544 1042 1492T1259 1343T1409 1095T1464 758Q1464 592 1421 453T1301 218T1121 62T897
-16Q906 -60 925 -90T969 -137T1035 -163T1116 -175T1221 -178H1325V-395H1116ZM782 199Q976 199 1091 346T1206 758Q1206 1020 1091 1164T782 1309Q585 1309 470 1165T354 758Q354 494 470 347T782 199Z" />
<glyph unicode="R" glyph-name="R" horiz-adv-x="1415" d="M172 0V1516H715Q990 1516 1137 1403T1284 1061Q1284 712 948 631L1305 0H1030L690 598H424V0H172ZM424 821H705Q873 821 952 873T1032 1055Q1032 1181 953 1231T702 1282H424V821Z" />
<glyph unicode="S" glyph-name="S" horiz-adv-x="1380" d="M702 -29Q482 -29 324 75T92 356L295 463Q428 199 713 199Q857 199 939 247T1022 395Q1022 491 946 548T678 662Q602 684 556 699T447 738T346 786T267 843T203 915T165 1004T150 1116Q150 1309 293 1426T668
1544Q878 1544 1018 1455T1235 1219L1049 1090Q916 1311 666 1311Q540 1311 471 1266T401 1139Q401 1097 415 1064T454 1007T526 960T624 919T758 877Q856 848 923 824T1062 760T1176 675T1246 564T1274 414Q1274 222 1120 97T702 -29Z" />
<glyph unicode="T" glyph-name="T" horiz-adv-x="1300" d="M522 0V1278H55V1516H1245V1278H778V0H522Z" />
<glyph unicode="U" glyph-name="U" horiz-adv-x="1476" d="M739 -25Q586 -25 472 16T289 135T186 317T152 553V1516H408V575Q408 207 741 207Q1073 207 1073 573V1516H1325V555Q1325 381 1261 252T1064 49T739 -25Z" />
<glyph unicode="V" glyph-name="V" horiz-adv-x="1396" d="M578 -6L51 1516H311L702 334H707L1104 1516H1346L819 -6H578Z" />
<glyph unicode="W" glyph-name="W" horiz-adv-x="1933" d="M463 0L59 1516H317L510 731Q567 507 590 379H594Q617 516 672 729L854 1516H1100L1288 725Q1350 482 1368 379H1372Q1382 438 1393 488T1421 611T1446 719L1634 1516H1874L1475 0H1251L979 1161H975L688 0H463Z" />
<glyph unicode="X" glyph-name="X" horiz-adv-x="1427" d="M66 0L569 805L119 1516H412L727 1008L1032 1516H1298L856 805L1362 0H1079L705 600L334 0H66Z" />
<glyph unicode="Y" glyph-name="Y" horiz-adv-x="1353" d="M547 0V653L31 1516H301L680 870L1057 1516H1323L805 653V0H547Z" />
<glyph unicode="Z" glyph-name="Z" horiz-adv-x="1320" d="M72 0V178L909 1300H127V1516H1231V1331L403 209H1231V0H72Z" />
<glyph unicode="[" glyph-name="bracketleft" horiz-adv-x="862" d="M158 -410V1516H788V1335H412V-229H788V-410H158Z" />
<glyph unicode="\" glyph-name="backslash" horiz-adv-x="1193" d="M907 0L27 1516H287L1167 0H907Z" />
<glyph unicode="]" glyph-name="bracketright" horiz-adv-x="862" d="M74 -410V-229H451V1333H74V1516H705V-410H74Z" />
<glyph unicode="^" glyph-name="asciicircum" horiz-adv-x="1095" d="M197 1202L461 1542H635L899 1202H752L547 1374L342 1202H197Z" />
<glyph unicode="_" glyph-name="underscore" horiz-adv-x="1024" d="M0 -297V-115H1024V-297H0Z" />
<glyph unicode="`" glyph-name="grave" horiz-adv-x="1024" d="M537 1202L240 1542H512L705 1202H537Z" />
<glyph unicode="a" glyph-name="a" horiz-adv-x="1157" d="M379 -16Q243 -16 158 57T72 262Q72 445 240 558T780 713V745Q780 826 737 863T602 901Q421 901 236 754L113 911Q208 998 343 1053T637 1108Q848 1108 938 1011T1028 715V266Q1028 74 1059 0H805Q780
80 780 139Q628 -16 379 -16ZM471 178Q648 178 780 303V543Q319 480 319 309Q319 246 360 212T471 178Z" />
<glyph unicode="b" glyph-name="b" horiz-adv-x="1251" d="M705 -16Q616 -16 534 19T393 121V0H141V1516H393V944Q530 1108 739 1108Q933 1108 1051 964T1169 545Q1169 270 1045 127T705 -16ZM649 184Q790 184 854 271T918 543Q918 713 849 803T657 893Q584 893
513 854T393 756V319Q443 254 511 219T649 184Z" />
<glyph unicode="c" glyph-name="c" horiz-adv-x="1116" d="M588 -23Q490 -23 402 10T240 110T124 287T80 543Q80 663 111 760T194 921T314 1028T454 1089T602 1108Q681 1108 746 1091T858 1045T943 975T1007 889T1053 791L840 715Q776 897 598 897Q481 897 408
812T334 543Q334 370 401 277T594 184Q687 184 746 224T848 373L1057 297Q1026 227 987 173T893 73T760 2T588 -23Z" />
<glyph unicode="d" glyph-name="d" horiz-adv-x="1251" d="M512 -16Q318 -16 200 126T82 541Q82 817 207 962T547 1108Q636 1108 717 1073T858 971V1516H1110V266Q1110 73 1143 0H883Q858 52 858 147Q716 -16 512 -16ZM594 190Q668 190 739 230T858 328V764Q809
828 740 863T602 899Q462 899 398 809T334 535Q334 365 402 278T594 190Z" />
<glyph unicode="e" glyph-name="e" horiz-adv-x="1155" d="M604 -23Q520 -23 445 -3T302 61T186 170T109 330T80 543Q80 662 112 760T197 921T319 1027T457 1089T598 1108Q674 1108 741 1090T871 1029T977 919T1048 751T1075 520V461H332Q339 319 418 249T623
178Q723 178 792 209T928 305L1061 174Q883 -23 604 -23ZM336 649H844Q821 903 596 903Q495 903 424 842T336 649Z" />
<glyph unicode="f" glyph-name="f" horiz-adv-x="765" d="M236 0V887H47V1087H236V1198Q236 1270 252 1326T307 1427T416 1497T588 1522Q638 1522 737 1511V1317Q705 1325 651 1325Q574 1325 531 1295T487 1184V1087H725V887H487V0H236Z" />
<glyph unicode="g" glyph-name="g" horiz-adv-x="1202" d="M551 -422Q281 -422 154 -351T27 -156Q27 -76 73 -18T205 74Q121 117 121 207Q121 316 268 406Q185 458 141 539T96 719Q96 890 219 999T553 1108Q758 1108 887 993Q938 1035 1013 1064T1157 1100V895Q1057
895 967 866Q1006 803 1006 719Q1006 546 884 439T553 332Q486 332 401 354Q346 323 346 285Q346 253 372 239T471 219L664 207Q904 191 1008 122T1112 -90Q1112 -253 962 -337T551 -422ZM557 506Q661 506 718 559T776 711Q776 812 719 866T555 920Q450 920 392
865T334 711T393 559T557 506ZM590 -240Q728 -240 808 -206T889 -113Q889 -53 833 -28T612 8L424 20Q398 20 358 27Q258 -19 258 -113Q258 -183 338 -211T590 -240Z" />
<glyph unicode="h" glyph-name="h" horiz-adv-x="1234" d="M141 0V1516H395V940Q460 1009 560 1058T793 1108Q938 1108 1022 1023T1106 780V0H852V717Q852 808 813 850T690 893Q549 893 395 752V0H141Z" />
<glyph unicode="i" glyph-name="i" horiz-adv-x="557" d="M150 1276V1495H408V1276H150ZM152 0V1087H406V0H152Z" />
<glyph unicode="j" glyph-name="j" horiz-adv-x="557" d="M150 1276V1495H408V1276H150ZM102 -414Q67 -414 14 -410T-51 -401V-225Q-15 -233 31 -233Q92 -233 122 -201T152 -96V1087H406V-135Q406 -196 394 -242T349 -330T255 -392T102 -414Z" />
<glyph unicode="k" glyph-name="k" horiz-adv-x="1153" d="M141 0V1516H393V612L805 1087H1081L727 690L1112 0H848L567 504L393 313V0H141Z" />
<glyph unicode="l" glyph-name="l" horiz-adv-x="557" d="M152 0V1516H406V0H152Z" />
<glyph unicode="m" glyph-name="m" horiz-adv-x="1892" d="M141 0V1087H393V938Q548 1108 766 1108Q894 1108 961 1063T1063 930Q1226 1108 1444 1108Q1604 1108 1682 1021T1761 780V0H1509V717Q1509 811 1476 852T1356 893Q1284 893 1220 858T1077 752V0H825V717Q825
811 792 852T672 893Q601 893 537 858T393 752V0H141Z" />
<glyph unicode="n" glyph-name="n" horiz-adv-x="1234" d="M141 0V1087H395V940Q460 1009 560 1058T793 1108Q938 1108 1022 1023T1106 780V0H852V717Q852 808 813 850T690 893Q549 893 395 752V0H141Z" />
<glyph unicode="o" glyph-name="o" horiz-adv-x="1220" d="M691 -23T610 -23T454 -3T310 62T191 171T110 331T80 543Q80 660 109 755T189 915T308 1024T452 1088T610 1108Q691 1108 766 1088T911 1024T1030 916T1111 756T1141 543Q1141 427 1111 332T1030 172T911
62T767 -3ZM610 188Q746 188 816 280T887 543Q887 702 818 797T610 893Q475 893 405 801T334 543Q334 380 402 284T610 188Z" />
<glyph unicode="p" glyph-name="p" horiz-adv-x="1251" d="M141 -410V1087H393V944Q530 1108 739 1108Q933 1108 1051 964T1169 545Q1169 270 1045 127T705 -16Q616 -16 534 19T393 121V-410H141ZM649 184Q790 184 854 271T918 543Q918 713 849 803T657 893Q584
893 513 854T393 756V319Q443 254 511 219T649 184Z" />
<glyph unicode="q" glyph-name="q" horiz-adv-x="1251" d="M858 -410V147Q716 -16 512 -16Q318 -16 200 126T82 541Q82 817 207 962T547 1108Q636 1108 717 1073T858 971V1087H1110V-410H858ZM594 190Q668 190 739 230T858 328V764Q809 828 740 863T602 899Q462
899 398 809T334 535Q334 365 402 278T594 190Z" />
<glyph unicode="r" glyph-name="r" horiz-adv-x="843" d="M141 0V1087H393V909H397Q521 1108 788 1108H805L797 877Q771 881 729 881Q512 881 393 688V0H141Z" />
<glyph unicode="s" glyph-name="s" horiz-adv-x="1071" d="M539 -23Q392 -23 264 24T59 150L197 303Q348 174 539 174Q756 174 756 299Q756 320 748 337T722 369T685 393T634 413T578 429T514 444Q349 482 278 517Q107 606 104 788Q104 931 216 1019T508 1108Q655
1108 759 1069T954 954L834 791Q773 841 686 875T526 909Q342 909 342 799Q342 773 355 753T387 719T441 693T504 673T580 655Q744 619 814 586Q986 506 993 329Q993 321 993 313Q993 230 957 165T858 59T714 -2T539 -23Z" />
<glyph unicode="t" glyph-name="t" horiz-adv-x="825" d="M563 -14Q461 -14 395 4T292 62T241 154T227 285V887H39V1087H227V1466H479V1087H760V887H479V348Q479 258 513 221T639 184Q706 184 748 199V0Q685 -14 563 -14Z" />
<glyph unicode="u" glyph-name="u" horiz-adv-x="1234" d="M442 -20Q297 -20 213 64T129 307V1087H383V367Q383 276 422 233T545 190Q684 190 840 332V1087H1094V0H840V147Q774 78 675 29T442 -20Z" />
<glyph unicode="v" glyph-name="v" horiz-adv-x="1079" d="M412 -2L18 1087H283L549 285H553L817 1087H1061L668 -2H412Z" />
<glyph unicode="w" glyph-name="w" horiz-adv-x="1562" d="M348 0L25 1087H281L399 637Q448 453 481 291H485Q528 485 571 641L686 1087H891L1012 633Q1046 516 1096 291H1100Q1152 514 1186 629L1309 1087H1538L1214 0H979L782 756H778L582 0H348Z" />
<glyph unicode="x" glyph-name="x" horiz-adv-x="1091" d="M39 0L418 561L66 1087H334L561 739L780 1087H1040L684 561L1061 0H793L543 381L297 0H39Z" />
<glyph unicode="y" glyph-name="y" horiz-adv-x="1120" d="M256 -422Q123 -422 -2 -389L55 -186Q134 -209 240 -209Q307 -209 346 -181T412 -86L442 -6L25 1087H287L567 295H571L850 1087H1100L637 -119Q579 -273 494 -347T256 -422Z" />
<glyph unicode="z" glyph-name="z" horiz-adv-x="1064" d="M70 0V145L649 887H113V1087H965V936L383 195H999V0H70Z" />
<glyph unicode="{" glyph-name="braceleft" horiz-adv-x="851" d="M567 -410Q429 -410 358 -332T287 -117V217Q287 292 274 340T230 415T160 452T59 463V643Q120 643 160 653T230 690T273 765T287 889V1223Q287 1360 358 1438T567 1516H791V1335H700Q541 1335
541 1176V860Q541 762 520 700T462 606T367 555V551Q456 521 498 455T541 246V-70Q541 -229 700 -229H791V-410H567Z" />
<glyph unicode="|" glyph-name="bar" horiz-adv-x="772" d="M262 -410V1516H510V-410H262Z" />
<glyph unicode="}" glyph-name="braceright" horiz-adv-x="851" d="M61 -410V-229H152Q311 -229 311 -70V266Q311 340 322 390T357 471T410 519T485 551V555Q439 570 411 587T358 635T322 716T311 840V1176Q311 1339 156 1339H66L61 1516H305Q443 1516 504 1449T565
1243V889Q565 814 578 766T622 691T692 654T793 643V463Q732 463 692 453T622 416T579 341T565 217V-137Q565 -275 504 -342T305 -410H61Z" />
<glyph unicode="~" glyph-name="asciitilde" horiz-adv-x="1054" d="M682 799Q636 799 591 817T515 856T449 895T385 913Q341 913 321 888T301 803H158Q158 1087 373 1087Q418 1087 464 1069T540 1030T607 991T672 973Q714 973 735 999T756 1083H897Q897 939 841
869T682 799Z" />
</font>
</defs>
</svg>
